<svg width="375" height="667" viewBox="0 0 375 667" fill="none" xmlns="http://www.w3.org/2000/svg">
<mask id="mask0_1_132" style="mask-type:alpha" maskUnits="userSpaceOnUse" x="0" y="0" width="375" height="667">
<rect width="375" height="667" fill="white"/>
</mask>
<g mask="url(#mask0_1_132)">
<rect width="375" height="667" fill="url(#paint0_linear_1_132)"/>
<g opacity="0.0600772">
<path fill-rule="evenodd" clip-rule="evenodd" d="M159.088 30.9904L209.51 0.825963C209.804 0.650982 209.983 0.339235 209.995 0H206.971L158.561 28.9603L110.15 0H106.111L58.7075 28.3583V0H56.6902V28.3583L9.28593 0H5.36577L6.2594 0.534328V58.5274L-42.1542 29.5651V0H-44.1714V29.5651L-92.585 58.5274V0.534328L-91.6914 0H-94.6023V58.5274L-114 46.923V49.2688L-95.5544 60.3033L-114 71.3385V73.6837L-94.6023 62.08V120.072L-114 131.677V134.022L-93.5937 121.815L-45.1236 150.811L-94.1128 180.118C-94.4167 180.299 -94.6023 180.626 -94.6023 180.98V240.749L-114 252.353V254.698L-94.6023 243.095V301.656C-94.6023 302.009 -94.4167 302.337 -94.1128 302.518L-45.1236 331.825L-93.5937 360.822L-114 348.614V350.96L-94.1128 362.857C-93.9527 362.952 -93.7732 363 -93.5937 363C-93.4141 363 -93.2346 362.952 -93.0746 362.857L7.78712 302.518C7.81738 302.5 7.84158 302.474 7.8705 302.453C7.90681 302.426 7.94446 302.401 7.97741 302.368C8.01372 302.332 8.04196 302.29 8.07222 302.249C8.09172 302.223 8.11526 302.203 8.13274 302.174C8.13543 302.17 8.1361 302.165 8.13879 302.161C8.14821 302.145 8.15358 302.128 8.16165 302.112C8.1899 302.056 8.21343 302 8.23091 301.942C8.2383 301.92 8.24301 301.898 8.24772 301.873C8.26117 301.815 8.26857 301.757 8.27058 301.698C8.27126 301.684 8.27663 301.671 8.27663 301.656V243.095L57.1798 272.349C57.1898 272.356 57.2013 272.358 57.212 272.363C57.2376 272.377 57.2618 272.393 57.2887 272.404C57.3183 272.418 57.3499 272.427 57.3808 272.437C57.3882 272.44 57.3963 272.442 57.4043 272.445C57.4164 272.449 57.4286 272.455 57.4407 272.458C57.4521 272.461 57.4635 272.463 57.4743 272.466C57.5032 272.473 57.5334 272.475 57.563 272.479C57.6 272.484 57.6363 272.489 57.674 272.49C57.6827 272.491 57.6901 272.493 57.6989 272.493C57.7197 272.493 57.7392 272.488 57.7601 272.487C57.7977 272.484 57.8347 272.482 57.8723 272.475C57.8959 272.471 57.9181 272.466 57.9416 272.46C57.9571 272.456 57.9732 272.452 57.9887 272.447C58.0129 272.44 58.0371 272.432 58.0606 272.424C58.0956 272.41 58.1279 272.393 58.1608 272.376C58.1796 272.367 58.1991 272.361 58.218 272.349L108.13 242.491L157.552 272.056V331.256L108.13 360.822L58.218 330.963C57.7405 330.676 57.1206 330.832 56.8335 331.308C56.547 331.784 56.7023 332.402 57.1798 332.687L107.611 362.857C107.771 362.952 107.95 363 108.13 363C108.309 363 108.489 362.952 108.649 362.857L159.08 332.687C159.383 332.506 159.569 332.179 159.569 331.825V271.487C159.569 271.134 159.383 270.807 159.08 270.625L109.138 240.749V181.55L158.561 151.985L207.983 181.55V241.319C207.983 241.875 208.435 242.325 208.991 242.325C209.548 242.325 210 241.875 210 241.319V180.981C210 180.628 209.814 180.301 209.51 180.119L159.08 149.95C158.76 149.759 158.361 149.759 158.041 149.95L107.611 180.119C107.605 180.122 107.602 180.126 107.597 180.129C107.557 180.154 107.52 180.183 107.484 180.213C107.468 180.226 107.451 180.238 107.436 180.252C107.406 180.281 107.379 180.314 107.351 180.348C107.336 180.365 107.321 180.382 107.308 180.4C107.284 180.433 107.265 180.47 107.245 180.505C107.234 180.526 107.221 180.547 107.211 180.568C107.196 180.603 107.184 180.639 107.173 180.676C107.165 180.702 107.155 180.728 107.149 180.754C107.141 180.786 107.139 180.818 107.134 180.851C107.129 180.886 107.124 180.92 107.124 180.955C107.123 180.964 107.121 180.971 107.121 180.98V240.749L58.7075 269.711V211.149C58.7075 210.796 58.5212 210.468 58.218 210.287L9.2281 180.98L108.649 121.504C108.952 121.322 109.138 120.995 109.138 120.642V62.08L158.041 91.3346C158.52 91.6216 159.138 91.4667 159.425 90.99C159.712 90.514 159.557 89.8959 159.08 89.6103L110.09 60.3033L159.08 30.9964C159.083 30.9944 159.085 30.9924 159.088 30.9904ZM8.27663 1.74176L55.7381 30.1342L8.27663 58.5274V1.74176ZM-92.585 120.072V60.8725L-43.1628 31.3075L5.30727 60.3033L-43.6819 89.6103C-43.9859 89.792 -44.1714 90.1191 -44.1714 90.4724V149.035L-92.585 120.072ZM6.2594 62.08V120.072L-42.1542 149.035V91.0416L6.2594 62.08ZM-44.1714 330.049L-92.585 301.087V243.095L-44.1714 272.056V330.049ZM-44.1714 269.711L-91.6336 241.318L-44.1714 212.925V269.711ZM-43.6819 210.287L-92.585 239.542V181.549L-43.1628 151.984L5.30727 180.98L-43.6819 210.287ZM-42.1542 212.925L5.30794 241.318L-42.1542 269.711V212.925ZM-42.1542 330.049V273.264L5.30727 301.656L-42.1542 330.049ZM6.2594 299.88L-41.2027 271.487L6.2594 243.095V299.88ZM6.2594 239.542L-41.2027 211.149L6.2594 182.756V239.542ZM56.6902 211.718V269.711L8.27663 240.749V182.756L56.6902 211.718ZM7.26802 179.807L-41.2027 150.811L7.26802 121.815L55.7381 150.811L7.26802 179.807ZM56.6902 149.035L8.27663 120.072V62.08L56.6902 91.0416V149.035ZM57.6989 89.2999L9.2281 60.3033L57.6989 31.3075L106.169 60.3033L57.6989 89.2999ZM107.121 120.072L58.7075 149.035V91.0416L107.121 62.08V120.072ZM108.13 59.1308L59.6589 30.1342L108.13 1.13771L156.601 30.1336L108.13 59.1308Z" fill="white"/>
<path fill-rule="evenodd" clip-rule="evenodd" d="M157 0V29.9824C157 30.3339 157.186 30.6594 157.49 30.8402L207.98 60.8573C208.141 60.9526 208.32 61 208.5 61C208.68 61 208.859 60.9526 209.019 60.8573L259.509 30.8402C259.514 30.8375 259.518 30.8342 259.523 30.8309C259.563 30.8062 259.6 30.7768 259.637 30.7461C259.652 30.7335 259.669 30.7221 259.684 30.7081C259.715 30.6794 259.741 30.6468 259.768 30.6147C259.783 30.5961 259.799 30.5794 259.813 30.5607C259.836 30.5287 259.855 30.494 259.873 30.4593C259.886 30.4373 259.899 30.416 259.91 30.3926C259.925 30.3599 259.935 30.3252 259.947 30.2912C259.955 30.2632 259.966 30.2358 259.973 30.2072C259.979 30.1771 259.982 30.1471 259.987 30.1164C259.991 30.0798 259.997 30.0444 259.997 30.0071C259.998 29.999 260 29.9917 260 29.9837V0H257.98V29.416L208.5 58.8328L159.02 29.416V0H157Z" fill="white"/>
<path fill-rule="evenodd" clip-rule="evenodd" d="M490 348.613L461.038 331.257V272.057L490 254.699V252.354L460.031 270.315L411.65 241.318L460.549 212.012C460.852 211.83 461.038 211.503 461.038 211.149V152.588L490 169.946V167.6L461.988 150.811L490 134.023V131.678L461.038 149.035V91.0426L490 73.6847V71.3396L460.031 89.3009L411.65 60.3045L460.549 30.9976C460.852 30.8159 461.038 30.4888 461.038 30.1355V0H459.024V29.5663L409.694 59.1319L361.313 30.1355L411.594 0H407.682L360.363 28.3595V0H358.35V28.3595L311.031 0H308.016C308.028 0.339904 308.207 0.652991 308.501 0.828642L357.4 30.1355L258.163 89.6113C257.86 89.793 257.675 90.1201 257.675 90.4734V149.035L208.862 119.78C208.386 119.495 207.767 119.649 207.48 120.125C207.194 120.602 207.349 121.219 207.826 121.505L256.725 150.811L207.826 180.118C207.823 180.12 207.82 180.123 207.817 180.125L157.489 210.289C157.185 210.47 157 210.797 157 211.151V271.489C157 272.045 157.45 272.494 158.007 272.494C158.562 272.494 159.013 272.045 159.013 271.489V211.72L208.344 182.155L257.675 211.72V269.711L208.862 240.456C208.386 240.171 207.767 240.325 207.48 240.801C207.194 241.278 207.349 241.895 207.826 242.181L256.726 271.488L207.826 300.796C207.349 301.081 207.194 301.699 207.48 302.175C207.67 302.489 208.003 302.663 208.345 302.663C208.521 302.663 208.7 302.618 208.862 302.52L259.199 272.351C259.202 272.35 259.204 272.347 259.206 272.346L309.019 242.491L357.4 271.487L308.501 300.794C308.024 301.08 307.869 301.698 308.156 302.174C308.344 302.488 308.678 302.662 309.02 302.662C309.195 302.662 309.375 302.616 309.536 302.519L358.35 273.263V331.825C358.35 332.179 358.535 332.507 358.838 332.688L409.176 362.855C409.184 362.86 409.192 362.861 409.199 362.866C409.263 362.902 409.331 362.93 409.402 362.952C409.417 362.957 409.431 362.962 409.447 362.966C409.527 362.987 409.608 363 409.694 363C409.777 363 409.856 362.987 409.933 362.968C409.946 362.965 409.958 362.96 409.971 362.957C410.035 362.938 410.096 362.914 410.155 362.883C410.172 362.875 410.186 362.867 410.202 362.858C410.264 362.821 410.323 362.779 410.376 362.73C410.381 362.724 410.388 362.72 410.393 362.715C410.451 362.658 410.503 362.594 410.546 362.523C410.549 362.518 410.553 362.515 410.557 362.511C410.566 362.495 410.57 362.48 410.578 362.464C410.598 362.427 410.617 362.391 410.632 362.351C410.643 362.323 410.65 362.294 410.658 362.265C410.668 362.233 410.677 362.2 410.683 362.165C410.689 362.128 410.692 362.093 410.694 362.055C410.695 362.035 410.7 362.015 410.7 361.994V301.656C410.7 301.303 410.515 300.976 410.211 300.794L361.313 271.487L409.694 242.491L459.024 272.057V331.825C459.024 331.834 459.026 331.841 459.027 331.85C459.027 331.888 459.032 331.926 459.038 331.963C459.042 331.992 459.045 332.02 459.051 332.048C459.058 332.082 459.071 332.114 459.082 332.147C459.091 332.176 459.1 332.206 459.112 332.234C459.126 332.265 459.144 332.293 459.162 332.323C459.176 332.35 459.19 332.376 459.207 332.401C459.226 332.429 459.25 332.454 459.272 332.48C459.293 332.503 459.312 332.527 459.334 332.549C459.357 332.57 459.381 332.588 459.406 332.608C459.434 332.63 459.462 332.653 459.493 332.673C459.5 332.677 459.506 332.683 459.513 332.688L490 350.959V348.613ZM259.688 91.0426L308.012 62.0811V120.073L259.688 149.035V91.0426ZM258.68 209.978L210.299 180.981L258.682 151.984L307.062 180.98L258.68 209.978ZM308.012 240.749L259.688 269.711V211.719L308.012 182.757V240.749ZM260.638 150.811L309.019 121.815L357.4 150.811L309.019 179.808L260.638 150.811ZM358.35 269.711L310.026 240.749V182.757L358.35 211.719V269.711ZM358.35 209.373L310.975 180.98L358.35 152.588V209.373ZM358.35 149.035L310.026 120.073V62.0811L358.35 91.0426V149.035ZM310.975 60.3045L359.356 31.3087L407.737 60.3045L359.356 89.3009L310.975 60.3045ZM408.687 62.0811V120.073L360.363 149.035V91.0426L408.687 62.0811ZM408.687 302.226V360.217L360.363 331.256V273.263L408.687 302.226ZM360.363 269.711V212.925L407.737 241.318L360.363 269.711ZM408.687 239.542L360.363 210.58V152.588L408.687 181.55V239.542ZM361.313 150.811L410.211 121.505C410.515 121.323 410.7 120.996 410.7 120.642V62.0811L459.024 91.0426V150.242L409.694 179.808L361.313 150.811ZM410.7 181.55L459.024 152.588V210.58L410.7 239.542V181.55Z" fill="white"/>
<path fill-rule="evenodd" clip-rule="evenodd" d="M281.825 0L258.674 13.8854L235.523 0H231.611L256.718 15.0586L158.015 74.2594L59.3111 15.0586L84.4176 0H80.5059L58.3615 13.2816V0H56.3483V13.2816L34.2039 0H30.2915L55.3987 15.0586L-43.8228 74.57C-44.1261 74.7517 -44.3113 75.0791 -44.3113 75.4326V194.404L-114 152.606V154.953L-45.2609 196.181L-114 237.409V239.756L-43.3047 197.354L55.3987 256.555L-114 358.157V360.504L-44.3113 318.706V435.9L-114 394.101V396.449L-44.3113 438.247V556.648L-114 514.849V517.196L-45.2616 558.425L-114 599.653V602L57.8723 498.913C57.9025 498.896 57.9253 498.87 57.9528 498.85C57.9904 498.822 58.0293 498.797 58.0629 498.763C58.0998 498.726 58.128 498.684 58.1588 498.642C58.1776 498.617 58.2011 498.597 58.2179 498.569C58.2206 498.565 58.2212 498.56 58.2239 498.556C58.2333 498.54 58.2393 498.522 58.2474 498.505C58.2756 498.451 58.2991 498.395 58.3159 498.338C58.3226 498.315 58.3279 498.292 58.3333 498.268C58.3461 498.21 58.3534 498.152 58.3555 498.093C58.3561 498.078 58.3615 498.065 58.3615 498.051V379.08L157.496 438.539C157.508 438.546 157.521 438.549 157.532 438.555C157.589 438.586 157.649 438.612 157.711 438.631C157.732 438.638 157.751 438.645 157.772 438.65C157.851 438.67 157.931 438.683 158.015 438.683C158.098 438.683 158.178 438.67 158.256 438.65C158.277 438.645 158.297 438.638 158.317 438.631C158.38 438.612 158.439 438.586 158.496 438.555C158.508 438.549 158.521 438.546 158.533 438.539L259.192 378.165C259.495 377.984 259.681 377.657 259.681 377.303V257.127L359.334 197.357L458.987 257.127V377.305C458.987 377.861 459.437 378.312 459.993 378.312C460.549 378.312 461 377.861 461 377.305V256.557C461 256.204 460.814 255.876 460.511 255.695L359.851 195.321C359.532 195.129 359.134 195.129 358.816 195.321L258.156 255.695C258.153 255.696 258.151 255.698 258.149 255.7C258.1 255.73 258.055 255.764 258.012 255.801C258.004 255.809 257.995 255.815 257.987 255.823C257.949 255.858 257.915 255.898 257.883 255.939C257.874 255.95 257.865 255.96 257.856 255.971C257.829 256.011 257.805 256.053 257.782 256.096C257.775 256.111 257.766 256.125 257.759 256.141C257.741 256.179 257.729 256.22 257.716 256.262C257.709 256.284 257.701 256.305 257.695 256.328C257.688 256.361 257.684 256.395 257.68 256.43C257.675 256.463 257.67 256.496 257.67 256.531C257.67 256.539 257.668 256.546 257.668 256.555V376.733L159.021 435.9V316.929C159.021 316.575 158.835 316.248 158.532 316.066L59.3111 256.555L259.192 136.669C259.495 136.488 259.681 136.16 259.681 135.807V16.8363L358.816 76.2953C359.292 76.5817 359.91 76.4268 360.197 75.9505C360.483 75.4742 360.328 74.8557 359.851 74.57L260.63 15.0586L285.737 0H281.825ZM-42.2981 76.0022L56.3483 16.8356V135.237L-42.2981 194.404V76.0022ZM-42.2981 318.706L55.3981 377.303L-42.2981 435.9V318.706ZM-42.2981 556.648V439.454L55.3981 498.051L-42.2981 556.648ZM56.3483 496.274L-41.3486 437.677L56.3483 379.08V496.274ZM56.3483 375.526L-41.3486 316.929L56.3483 258.332V375.526ZM157.008 317.499V435.9L58.3615 376.733V258.332L157.008 317.499ZM57.3549 255.381L-41.3486 196.181L57.3549 136.98L156.058 196.181L57.3549 255.381ZM157.008 194.404L58.3615 135.237V16.8356L157.008 76.0022V194.404ZM257.668 135.237L159.021 194.404V76.0022L257.668 16.8363V135.237Z" fill="white"/>
</g>
</g>
<defs>
<linearGradient id="paint0_linear_1_132" x1="375" y1="302.394" x2="205.282" y2="675.098" gradientUnits="userSpaceOnUse">
<stop stop-color="#0C2442"/>
<stop offset="1" stop-color="#4F7492"/>
</linearGradient>
</defs>
</svg>
